<svg id="Layer_1" data-name="Layer 1" xmlns="http://www.w3.org/2000/svg" viewBox="0 0 1280 1024"><defs><style>.cls-1{fill:#faed27;}.cls-2{fill:#f1c219;}.cls-3{fill:#fff;}.cls-4{fill:#f6f2a4;}</style></defs><title>Artboard 1</title><path class="cls-1" d="M120.9,159.6c4.5-1.2,9.2-3,12.7-6.2,4.6-4.2,4-8.6,4.7-14.3.2-2.2,1.2-4.5,3.2-5.3,1.2-.5,2.7-.5,3.6-1.4a4.58,4.58,0,0,0,1-2.1,33.13,33.13,0,0,1,20-20.7,3.75,3.75,0,0,0-1.4,2.1c10.4-2.4,21.6-4,31.3.5-.5.2-1.1.4-1.6.6,8.9,3.2,19.9,5.7,26.9,12.5a19.45,19.45,0,0,0-2-.5A67.53,67.53,0,0,0,231,139.7a4.2,4.2,0,0,0-4.3.6c-4.4,3.7.8,9.4,4.8,10.7,8.8,3,8.5-4.9,11.5-10.3,5.2-9.3,15.6-13.1,25.7-14.3-4.9,9.3-4.3,21.3-10.9,29.5a18,18,0,0,1,7.3,8.8c2.5,6.6,1.1,14.8,5.6,20.3-1.2-1.4-6.9-2.6-8.8-3.8-5.5-3.3-9.2-7.9-14.2-11.8-5.6-4.4-15.4-8.8-18.9.6,1.9-.3,3.3,1.4,4.6,2.8s3.4,2.7,4.9,1.6c-1.9,1.5-2,5-3.5,6.9s-11.8,8.4-14.5,6a6.13,6.13,0,0,0,3.7,1.5c-12.5,8.1-30,7.6-42-1.3-.2-.2-4.5,1.4-5.1,1.5a28.18,28.18,0,0,1-6.5.1,48.28,48.28,0,0,1-10.4-2.7,64.39,64.39,0,0,1-15.9-8.6c-4.7-3.5-9.5-7.9-15.7-8-3.1-.1-6.6,1-9.3-.6a11.35,11.35,0,0,1,5.7-3.7,8.43,8.43,0,0,1-6.1-4.6.93.93,0,0,1,1.3-1.2C120.3,159.6,120.6,159.7,120.9,159.6Z"/><path class="cls-2" d="M150.1,125.7c-.9.5-1.8.9-2.7,1.5a33.06,33.06,0,0,1,18.9-17.6,3.75,3.75,0,0,0-1.4,2.1c10.4-2.4,21.6-4,31.3.5-.5.2-1.1.4-1.6.6,8.9,3.2,19.9,5.7,26.9,12.5-.7-.2-1.4-.4-2-.6a67.53,67.53,0,0,0,11.7,14.9,4.31,4.31,0,0,0-5.9,4.6c-3.2-2.3-6.4-4.6-9.4-7.1-2.8-2.4-5.5-5-8.4-7.3a50.73,50.73,0,0,0-28-10.3A58.44,58.44,0,0,0,150.1,125.7Z"/><path class="cls-2" d="M265.1,164.7c2.5,6.6,1.1,14.8,5.6,20.3-1.2-1.4-6.9-2.6-8.8-3.8-5.5-3.3-9.2-7.9-14.2-11.8a35.63,35.63,0,0,0-5-3.2c1.5-2.1,1.4-5.4.9-8.1a18.76,18.76,0,0,0-2.4-7.7,13.3,13.3,0,0,0-1.4-1.9c1.2-2.2,1.9-5.2,3.2-7.7,5.2-9.3,15.6-13.1,25.7-14.3-4.9,9.3-4.3,21.3-10.9,29.5A16.87,16.87,0,0,1,265.1,164.7Z"/><path class="cls-2" d="M182.8,188.1c5.7-.7,11.5.2,17.1-.4,11.1-1.2,20.9-8.2,28.3-16.6a11,11,0,0,1,1-1.1c1.7,0,3,1.5,4.2,2.8s3.4,2.7,4.9,1.6c-1.9,1.5-2,5-3.5,6.9s-11.8,8.4-14.5,6a6.13,6.13,0,0,0,3.7,1.5C211.8,196.7,194.8,196.3,182.8,188.1Z"/><circle cx="150" cy="142.3" r="5.1"/><circle class="cls-3" cx="148.2" cy="141.5" r="1.8"/><path class="cls-2" d="M178.9,167h-.5a16.1,16.1,0,0,1,2.7,5.2,14.31,14.31,0,0,1-4.3-2.1,24.58,24.58,0,0,1-.7,6c-.9-1-1.7-2.1-2.6-3.1a27,27,0,0,0-9-7.1c.1-1.1,1.1-1.9,1.8-2.7a10,10,0,0,0,2.2-8.5c-.5-2.3,4.6-2.7,6.2-3.3a44.53,44.53,0,0,0,8.1-4.2,12.37,12.37,0,0,1-2.8,9.6c1.3.4,2.7.7,4,1.1a11.12,11.12,0,0,1-4.5,5.3,8.68,8.68,0,0,1,3.6,3.5Z"/><path class="cls-4" d="M160.3,129.1c-.2,2.6,2.4,4.8,5,5.1s5.4-.8,8-1.8c5.5-2.1,11.7-.9,17.3.4a75.46,75.46,0,0,1,24.9,11.1c-7.7-5.2-15.5-10.3-24.1-13.9-7.7-3.2-19.5-8.3-27.9-4.9a5.1,5.1,0,0,0-3.2,3.5A.45.45,0,0,1,160.3,129.1Z"/></svg>