<svg id="Layer_1" data-name="Layer 1" xmlns="http://www.w3.org/2000/svg" viewBox="0 0 1280 1024"><defs><style>.cls-1{fill:#3e5ba9;}.cls-2{fill:#14090a;}.cls-3{fill:#0088cb;}.cls-4{fill:#faed27;}.cls-5{fill:#0d150d;}.cls-6{fill:#fff;}</style></defs><title>Artboard 2</title><path class="cls-1" d="M130.4,199.35a23.85,23.85,0,0,0,7.1-16.9c0-7.8-3.8-15.2-8.8-21.2.6.7,7.8.4,9.3.7a63.6,63.6,0,0,1,10.6,2.8c5,1.8,13.2,8.1,18.4,7,8.5-1.8-.3-14.9-5.3-16.3,1.1.3,7.3-4.4,8.6-5,10.6-5.3,22.2-8,33.9-9.4,9.5-1.1,19.8-1.6,29.3,1,10,2.8,18.4,9.1,25.9,16.1a109.86,109.86,0,0,1,9.6,9.7c.7.8,7.3,11.7,5.9,12-1.7.5-3.5.9-5.2,1.4,1.8,1.1,3.8,3.2,2.6,4.9a4.15,4.15,0,0,1-1.2,1.1,98.7,98.7,0,0,0-12.6,10c-3.9,3.6-7.2,8.4-11.7,11.3-6,4-14.2,6.1-21.1,7.5-22.7,4.6-45.5-.5-63.7-15.2-.9-.7-6.4-6.4-7.2-6.2a16.13,16.13,0,0,0,8.8-5.9c1.4-1.8,3.4-5.3.9-6.9-4.6-3-15.5,10.3-18.9,12.6C141.1,197.45,135.8,199.65,130.4,199.35Z"/><path class="cls-2" d="M250.5,199.05a121.27,121.27,0,0,1-71.5,4.2,21.78,21.78,0,0,1-7.1-2.7,4.44,4.44,0,0,1-1.1-.8,13.5,13.5,0,0,1-4.1-6.1,15.14,15.14,0,0,1-.7-3.7v-1.9a2.72,2.72,0,0,0,0-.9,2.05,2.05,0,0,1,0-1.1c0-.5.1-1.1.1-1.6a2.15,2.15,0,0,0,0-.8.54.54,0,0,0-.5-.5c0,.5.1.9.1,1.4a4.42,4.42,0,0,1-.5,1.5,14,14,0,0,1-1.6,2.6,16.13,16.13,0,0,1-8.8,5.9c.8-.2,6.3,5.5,7.2,6.2,18.2,14.7,41,19.8,63.7,15.2,7-1.4,15.1-3.5,21.1-7.5,4.5-3,7.8-7.7,11.7-11.3l.1-.1C255.9,197,253.1,198.05,250.5,199.05Z"/><path class="cls-3" d="M238.5,202.85a121.46,121.46,0,0,1-59.6.4,21.78,21.78,0,0,1-7.1-2.7,13.76,13.76,0,0,1-5.9-13,9.64,9.64,0,0,0-1.5,4.6c-.2,4.1,2,8.1,5.2,10.8a27.4,27.4,0,0,0,11.2,5.2c11.9,3.2,24.4,3.1,36.6,1.3C224.7,208.35,232.2,206.45,238.5,202.85Z"/><path class="cls-2" d="M253.1,152.45c-5.8-4.6-12.2-8.5-19.5-10.5-9.5-2.6-19.8-2.2-29.3-1-11.7,1.4-23.3,4.1-33.9,9.4-1.3.7-7.5,5.3-8.6,5,3.1.9,7.7,6.4,8.7,10.8a36.53,36.53,0,0,0,5.6-1.8c13-5.1,25.5-11.6,39.2-14C227.8,148,240.7,149.25,253.1,152.45Z"/><path class="cls-3" d="M246.1,148.65c-18.2-9-39.6-8.5-58.6-2.6-5,1.6-9.2,2.7-12.1,7.1a16,16,0,0,0-2.5,12.2c1.1-.4,2.1-.7,3.2-1.2,13-5.1,25.5-11.6,39.2-14,12.2-2.2,24.7-1,36.8,2A32.47,32.47,0,0,0,246.1,148.65Z"/><path class="cls-4" d="M234.8,188.35c.7,2.9-6.6,5.7-8.5,6.3-4.9,1.5-9.5-1.5-11.9-5.9-2.6-4.8-1.4-16.6,6.7-12.2,7.3,4,12.7,7.4,12.7,7.4Z"/><path class="cls-5" d="M234.8,188.35l-1-4.4-5.2-3.1a65,65,0,0,1-8.7-3.3,7.43,7.43,0,0,0,3.5,4.6,14.1,14.1,0,0,1-4.1.1,4.52,4.52,0,0,0,4,2.1,15.93,15.93,0,0,1-4.2,1.9,16,16,0,0,0,4.9,1.2,5.61,5.61,0,0,1-4,1.7,9.73,9.73,0,0,0,4.7,1,6,6,0,0,1-2.5,1.9,5.38,5.38,0,0,0,3.3,1,16,16,0,0,1-2.1.5,9.41,9.41,0,0,0,2.2,1.2c.2-.1.5-.1.7-.2C228.3,194.15,235.5,191.25,234.8,188.35Z"/><circle cx="255.8" cy="167.85" r="4.2" transform="translate(49.15 393.46) rotate(-80.78)"/><circle class="cls-6" cx="254.3" cy="167.15" r="1.5"/><path class="cls-2" d="M227.1,162.75a132.15,132.15,0,0,1,30.7-4.3c-5.9-2.3-12.5-2.4-18.8-1.9-22,1.6-42.9,9.6-64.3,14.7a19.06,19.06,0,0,1-7.5.5h0c-5.2,1.1-13.5-5.2-18.4-7a66.27,66.27,0,0,0-10.6-2.8c-1.4-.2-8.7,0-9.3-.7,5.1,6,8.9,13.4,8.8,21.2a24.27,24.27,0,0,1-7.1,16.9c5.4.3,10.7-1.9,15.1-4.9,3.4-2.3,14.3-15.7,18.9-12.6a2.43,2.43,0,0,1,1,1.3c3.2-1.2,6.8-1.1,10.2-1.1,10.2-.1,20.9-1.4,29.1-7.5,1.9-1.4,3.6-3.1,5.5-4.5C215.2,166.25,221.1,164.25,227.1,162.75Z"/><path class="cls-4" d="M156.1,176.65c-6-2.8-12.2-5.7-18.8-6a19.27,19.27,0,0,0-2.4.1,28.79,28.79,0,0,1,2.6,11.5,23.8,23.8,0,0,1-1.1,7C143.5,186.25,149.9,181.35,156.1,176.65Z"/></svg>